<svg xmlns="http://www.w3.org/2000/svg" style="display: none;"><symbol id="dashboard" viewBox="0 0 512 512"><title>dashboard</title><path d="m197.332031 170.667969h-160c-20.585937 0-37.332031-16.746094-37.332031-37.335938v-96c0-20.585937 16.746094-37.332031 37.332031-37.332031h160c20.589844 0 37.335938 16.746094 37.335938 37.332031v96c0 20.589844-16.746094 37.335938-37.335938 37.335938zm-160-138.667969c-2.941406 0-5.332031 2.390625-5.332031 5.332031v96c0 2.945313 2.390625 5.335938 5.332031 5.335938h160c2.945313 0 5.335938-2.390625 5.335938-5.335938v-96c0-2.941406-2.390625-5.332031-5.335938-5.332031zm0 0"/><path d="m197.332031 512h-160c-20.585937 0-37.332031-16.746094-37.332031-37.332031v-224c0-20.589844 16.746094-37.335938 37.332031-37.335938h160c20.589844 0 37.335938 16.746094 37.335938 37.335938v224c0 20.585937-16.746094 37.332031-37.335938 37.332031zm-160-266.667969c-2.941406 0-5.332031 2.390625-5.332031 5.335938v224c0 2.941406 2.390625 5.332031 5.332031 5.332031h160c2.945313 0 5.335938-2.390625 5.335938-5.332031v-224c0-2.945313-2.390625-5.335938-5.335938-5.335938zm0 0"/><path d="m474.667969 512h-160c-20.589844 0-37.335938-16.746094-37.335938-37.332031v-96c0-20.589844 16.746094-37.335938 37.335938-37.335938h160c20.585937 0 37.332031 16.746094 37.332031 37.335938v96c0 20.585937-16.746094 37.332031-37.332031 37.332031zm-160-138.667969c-2.945313 0-5.335938 2.390625-5.335938 5.335938v96c0 2.941406 2.390625 5.332031 5.335938 5.332031h160c2.941406 0 5.332031-2.390625 5.332031-5.332031v-96c0-2.945313-2.390625-5.335938-5.332031-5.335938zm0 0"/><path d="m474.667969 298.667969h-160c-20.589844 0-37.335938-16.746094-37.335938-37.335938v-224c0-20.585937 16.746094-37.332031 37.335938-37.332031h160c20.585937 0 37.332031 16.746094 37.332031 37.332031v224c0 20.589844-16.746094 37.335938-37.332031 37.335938zm-160-266.667969c-2.945313 0-5.335938 2.390625-5.335938 5.332031v224c0 2.945313 2.390625 5.335938 5.335938 5.335938h160c2.941406 0 5.332031-2.390625 5.332031-5.335938v-224c0-2.941406-2.390625-5.332031-5.332031-5.332031zm0 0"/></symbol><symbol id="shortcut" viewBox="0 0 512 512"><title>shortcut</title><path d="m126 362c0 5.523438-4.476562 10-10 10s-10-4.476562-10-10 4.476562-10 10-10 10 4.476562 10 10zm0 0"/><path d="m406 277.570312v-237.570312c0-22.054688-17.945312-40-40-40s-40 17.945312-40 40v46h-140v-46c0-22.054688-17.945312-40-40-40s-40 17.945312-40 40v237.570312c-47.449219 18.164063-106 53.640626-106 104.429688 0 77.226562 125.90625 130 256 130 134.054688 0 256-54.625 256-130 0-50.796875-58.566406-86.269531-106-104.429688zm-60-237.570312c0-11.027344 8.972656-20 20-20s20 8.972656 20 20v432.96875c-12.667969 4.035156-26.066406 7.460938-40 10.265625zm-20 252h-140v-40h140zm-140 20h140v60h-140zm140-80h-140v-66h140zm-140 160h140v40h-140zm140-286v40h-140v-40zm-306 276c0-29.855469 32.597656-60.960938 86-82.90625v22.90625c0 5.523438 4.476562 10 10 10s10-4.476562 10-10v-282c0-11.027344 8.972656-20 20-20s20 8.972656 20 20v443.238281c-13.933594-2.808593-27.332031-6.234375-40-10.269531v-70.96875c0-5.523438-4.476562-10-10-10s-10 4.476562-10 10v63.859375c-54.121094-21.277344-86-52.09375-86-83.859375zm166 104.773438v-34.773438h140v34.773438c-22.722656 3.464843-46.226562 5.226562-70 5.226562s-47.277344-1.765625-70-5.226562zm220-20.914063v-166.765625c53.402344 21.945312 86 53.050781 86 82.90625 0 31.765625-31.878906 62.582031-86 83.859375zm0 0"/></symbol><symbol id="wave" viewBox="0 0 469.333 469.333"><title>wave</title><g> <path style="fill:#F44336;" d="M10.667,298.667C4.779,298.667,0,293.888,0,288V181.333c0-5.888,4.779-10.667,10.667-10.667 s10.667,4.779,10.667,10.667V288C21.333,293.888,16.555,298.667,10.667,298.667z"/> <path style="fill:#F44336;" d="M74.667,384C68.779,384,64,379.221,64,373.333V96c0-5.888,4.779-10.667,10.667-10.667 S85.333,90.112,85.333,96v277.333C85.333,379.221,80.555,384,74.667,384z"/> <path style="fill:#F44336;" d="M138.667,469.333c-5.888,0-10.667-4.779-10.667-10.667v-448C128,4.779,132.779,0,138.667,0 s10.667,4.779,10.667,10.667v448C149.333,464.555,144.555,469.333,138.667,469.333z"/> <path style="fill:#F44336;" d="M202.667,448c-5.888,0-10.667-4.779-10.667-10.667V32c0-5.888,4.779-10.667,10.667-10.667 S213.333,26.112,213.333,32v405.333C213.333,443.221,208.555,448,202.667,448z"/> <path style="fill:#F44336;" d="M266.667,362.667c-5.888,0-10.667-4.779-10.667-10.667V117.333c0-5.888,4.779-10.667,10.667-10.667 s10.667,4.779,10.667,10.667V352C277.333,357.888,272.555,362.667,266.667,362.667z"/> <path style="fill:#F44336;" d="M330.667,448c-5.888,0-10.667-4.779-10.667-10.667V32c0-5.888,4.779-10.667,10.667-10.667 c5.888,0,10.667,4.779,10.667,10.667v405.333C341.333,443.221,336.555,448,330.667,448z"/> <path style="fill:#F44336;" d="M394.667,362.667c-5.888,0-10.667-4.779-10.667-10.667V117.333c0-5.888,4.779-10.667,10.667-10.667 c5.888,0,10.667,4.779,10.667,10.667V352C405.333,357.888,400.555,362.667,394.667,362.667z"/> <path style="fill:#F44336;" d="M458.667,298.667c-5.888,0-10.667-4.779-10.667-10.667V181.333c0-5.888,4.779-10.667,10.667-10.667 c5.888,0,10.667,4.779,10.667,10.667V288C469.333,293.888,464.555,298.667,458.667,298.667z"/> </g><path d="M10.667,298.667C4.779,298.667,0,293.888,0,288V181.333c0-5.888,4.779-10.667,10.667-10.667s10.667,4.779,10.667,10.667V288 C21.333,293.888,16.555,298.667,10.667,298.667z"/><path d="M74.667,384C68.779,384,64,379.221,64,373.333V96c0-5.888,4.779-10.667,10.667-10.667S85.333,90.112,85.333,96v277.333 C85.333,379.221,80.555,384,74.667,384z"/><path d="M138.667,469.333c-5.888,0-10.667-4.779-10.667-10.667v-448C128,4.779,132.779,0,138.667,0s10.667,4.779,10.667,10.667v448 C149.333,464.555,144.555,469.333,138.667,469.333z"/><path d="M202.667,448c-5.888,0-10.667-4.779-10.667-10.667V32c0-5.888,4.779-10.667,10.667-10.667S213.333,26.112,213.333,32 v405.333C213.333,443.221,208.555,448,202.667,448z"/><path d="M266.667,362.667c-5.888,0-10.667-4.779-10.667-10.667V117.333c0-5.888,4.779-10.667,10.667-10.667 s10.667,4.779,10.667,10.667V352C277.333,357.888,272.555,362.667,266.667,362.667z"/><path d="M330.667,448c-5.888,0-10.667-4.779-10.667-10.667V32c0-5.888,4.779-10.667,10.667-10.667 c5.888,0,10.667,4.779,10.667,10.667v405.333C341.333,443.221,336.555,448,330.667,448z"/><path d="M394.667,362.667c-5.888,0-10.667-4.779-10.667-10.667V117.333c0-5.888,4.779-10.667,10.667-10.667 c5.888,0,10.667,4.779,10.667,10.667V352C405.333,357.888,400.555,362.667,394.667,362.667z"/><path d="M458.667,298.667c-5.888,0-10.667-4.779-10.667-10.667V181.333c0-5.888,4.779-10.667,10.667-10.667 c5.888,0,10.667,4.779,10.667,10.667V288C469.333,293.888,464.555,298.667,458.667,298.667z"/></symbol><symbol id="calendar" viewBox="0 0 512 512"><title>calendar</title><circle cx="386" cy="210" r="20"/><path d="M432,40h-26V20c0-11.046-8.954-20-20-20c-11.046,0-20,8.954-20,20v20h-91V20c0-11.046-8.954-20-20-20 c-11.046,0-20,8.954-20,20v20h-90V20c0-11.046-8.954-20-20-20s-20,8.954-20,20v20H80C35.888,40,0,75.888,0,120v312 c0,44.112,35.888,80,80,80h153c11.046,0,20-8.954,20-20c0-11.046-8.954-20-20-20H80c-22.056,0-40-17.944-40-40V120 c0-22.056,17.944-40,40-40h25v20c0,11.046,8.954,20,20,20s20-8.954,20-20V80h90v20c0,11.046,8.954,20,20,20s20-8.954,20-20V80h91 v20c0,11.046,8.954,20,20,20c11.046,0,20-8.954,20-20V80h26c22.056,0,40,17.944,40,40v114c0,11.046,8.954,20,20,20 c11.046,0,20-8.954,20-20V120C512,75.888,476.112,40,432,40z"/><path d="M391,270c-66.72,0-121,54.28-121,121s54.28,121,121,121s121-54.28,121-121S457.72,270,391,270z M391,472 c-44.663,0-81-36.336-81-81s36.337-81,81-81c44.663,0,81,36.336,81,81S435.663,472,391,472z"/><path d="M420,371h-9v-21c0-11.046-8.954-20-20-20c-11.046,0-20,8.954-20,20v41c0,11.046,8.954,20,20,20h29 c11.046,0,20-8.954,20-20C440,379.954,431.046,371,420,371z"/><circle cx="299" cy="210" r="20"/><circle cx="212" cy="297" r="20"/><circle cx="125" cy="210" r="20"/><circle cx="125" cy="297" r="20"/><circle cx="125" cy="384" r="20"/><circle cx="212" cy="384" r="20"/><circle cx="212" cy="210" r="20"/></symbol><symbol id="question" viewBox="0 0 512 512"><title>question</title><circle cx="256" cy="378.5" r="25"/><path d="M256,0C114.516,0,0,114.497,0,256c0,141.484,114.497,256,256,256c141.484,0,256-114.497,256-256 C512,114.516,397.503,0,256,0z M256,472c-119.377,0-216-96.607-216-216c0-119.377,96.607-216,216-216 c119.377,0,216,96.607,216,216C472,375.377,375.393,472,256,472z"/><path d="M256,128.5c-44.112,0-80,35.888-80,80c0,11.046,8.954,20,20,20s20-8.954,20-20c0-22.056,17.944-40,40-40 c22.056,0,40,17.944,40,40c0,22.056-17.944,40-40,40c-11.046,0-20,8.954-20,20v50c0,11.046,8.954,20,20,20 c11.046,0,20-8.954,20-20v-32.531c34.466-8.903,60-40.26,60-77.469C336,164.388,300.112,128.5,256,128.5z"/></symbol><symbol id="settings" viewBox="0 0 64 64"><title>settings</title><path d="m31 28h2v10h-2z"/><path d="m23 34h2v4h-2z"/><path d="m39 24h2v14h-2z"/><path d="m59 28h-3.01a3 3 0 0 1 -2.87-2.14 21.31 21.31 0 0 0 -1.84-4.45 3.019 3.019 0 0 1 .51-3.55l2.13-2.12a1.014 1.014 0 0 0 0-1.42l-4.24-4.24a1.027 1.027 0 0 0 -1.42 0l-2.12 2.13a3.019 3.019 0 0 1 -3.55.51 21.31 21.31 0 0 0 -4.45-1.84 3 3 0 0 1 -2.14-2.87v-3.01a1 1 0 0 0 -1-1h-6a1 1 0 0 0 -1 1v3.01a3 3 0 0 1 -2.14 2.87 21.31 21.31 0 0 0 -4.45 1.84 3.019 3.019 0 0 1 -3.55-.51l-2.12-2.13a1.027 1.027 0 0 0 -1.42 0l-4.24 4.24a1.014 1.014 0 0 0 0 1.42l2.13 2.12a3.019 3.019 0 0 1 .51 3.55 21.31 21.31 0 0 0 -1.84 4.45 3 3 0 0 1 -2.87 2.14h-3.01a1 1 0 0 0 -1 1v6a1 1 0 0 0 1 1h3.01a3 3 0 0 1 2.87 2.14 21.31 21.31 0 0 0 1.84 4.45 3.019 3.019 0 0 1 -.51 3.55l-2.13 2.12a1.014 1.014 0 0 0 0 1.42l4.24 4.24a1.027 1.027 0 0 0 1.42 0l2.12-2.13a3.038 3.038 0 0 1 2.13-.87 2.966 2.966 0 0 1 1.42.36 21.31 21.31 0 0 0 4.45 1.84 3 3 0 0 1 2.14 2.87v3.01a1 1 0 0 0 1 1h6a1 1 0 0 0 1-1v-3.01a3 3 0 0 1 2.14-2.87 21.31 21.31 0 0 0 4.45-1.84 3.019 3.019 0 0 1 3.55.51l2.12 2.13a1.027 1.027 0 0 0 1.42 0l4.24-4.24a1.014 1.014 0 0 0 0-1.42l-2.13-2.12a3.019 3.019 0 0 1 -.51-3.55 21.31 21.31 0 0 0 1.84-4.45 3 3 0 0 1 2.87-2.14h3.01a1 1 0 0 0 1-1v-6a1 1 0 0 0 -1-1zm-27 22a18 18 0 1 1 18-18 18.027 18.027 0 0 1 -18 18z"/><path d="m32 16a16 16 0 1 0 16 16 16.021 16.021 0 0 0 -16-16zm13 24h-26v-2h2v-5a1 1 0 0 1 1-1h4a1 1 0 0 1 1 1v5h2v-11a1 1 0 0 1 1-1h4a1 1 0 0 1 1 1v11h2v-15a1 1 0 0 1 1-1h4a1 1 0 0 1 1 1v15h2z"/></symbol><symbol id="email" viewBox="0 0 512 512"><title>email</title><path d="M485.743,85.333H26.257C11.815,85.333,0,97.148,0,111.589V400.41c0,14.44,11.815,26.257,26.257,26.257h459.487 c14.44,0,26.257-11.815,26.257-26.257V111.589C512,97.148,500.185,85.333,485.743,85.333z M475.89,105.024L271.104,258.626 c-3.682,2.802-9.334,4.555-15.105,4.529c-5.77,0.026-11.421-1.727-15.104-4.529L36.109,105.024H475.89z M366.5,268.761 l111.59,137.847c0.112,0.138,0.249,0.243,0.368,0.368H33.542c0.118-0.131,0.256-0.23,0.368-0.368L145.5,268.761 c3.419-4.227,2.771-10.424-1.464-13.851c-4.227-3.419-10.424-2.771-13.844,1.457l-110.5,136.501V117.332l209.394,157.046 c7.871,5.862,17.447,8.442,26.912,8.468c9.452-0.02,19.036-2.6,26.912-8.468l209.394-157.046v275.534L381.807,256.367 c-3.42-4.227-9.623-4.877-13.844-1.457C363.729,258.329,363.079,264.534,366.5,268.761z"/></symbol></svg>